<?xml version="1.0" encoding="utf-8"?>
<!-- Generator: Adobe Illustrator 18.0.0, SVG Export Plug-In . SVG Version: 6.00 Build 0)  -->
<!DOCTYPE svg PUBLIC "-//W3C//DTD SVG 1.1//EN" "http://www.w3.org/Graphics/SVG/1.1/DTD/svg11.dtd">
<svg version="1.1" id="Calque_1" xmlns="http://www.w3.org/2000/svg" xmlns:xlink="http://www.w3.org/1999/xlink" x="0px" y="0px"
	 viewBox="0 0 193.5 63.8" enable-background="new 0 0 193.5 63.8" xml:space="preserve">
<g>
	<path fill="#FFFFFF" d="M18.4,56l0.2,0l0,0.2l-0.3,0l0.1,0.2h-0.1c-0.1,0-0.2-0.1-0.2-0.2C18.1,56.2,18.4,56,18.4,56z M18.7,56.2
		l0,0.3l-0.2,0l0-0.1C18.5,56.3,18.6,56.2,18.7,56.2z M63.1,11.4l0.8,0c1.7-0.1,2.9,0.4,3.5,1.5c0.1,0.2,0.2,0.4,0.2,0.5l0,0.1
		c0,1.5-2.9,4.2-8.9,8.3c-0.1,0-0.8,0.4-1.9,1.3c-0.1,0-1.5,0.8-4.1,2.4c-0.9,0.5-1.4,0.8-1.5,1l0.1,0c3.6-0.8,5.5-1.2,5.8-1.2
		l0,0.1c0-0.2,1.6-0.4,4.9-0.6l0.2-0.1c0.1,0.1,0.2,0.1,0.3,0.1l0.4-0.1c0.1,0.1,0.2,0.1,0.3,0.1c0.1,0,0.1,0,0.1-0.1l0.5,0.1l1.2,0
		c0.1,0,0.1,0,0.1,0.1l0.2-0.1c2.2-0.1,3.8,0.5,4.8,1.6c0.3,0.3,0.4,0.5,0.4,0.6c0.1,1.6-2.9,4.1-8.7,7.6c-6.2,3.6-14.4,7.9-24.6,13
		c-0.1,0.1-0.9,0.6-2.5,1.4l-0.2-0.1c-0.6,0.5-1.8,1.2-3.5,2l-0.3,0c0,0.2-0.3,0.4-1,0.7c-0.1,0.1-1.8,1-4.9,2.6
		c-1.6,1-2.9,1.7-3.8,2l0-0.2c-0.2,0-0.3,0.1-0.3,0.3l-0.1,0c-0.1,0-0.1,0-0.1-0.1L19,56.7l-0.2,0l0-0.1c0.7-0.4,1.1-0.7,1.1-0.8
		l0-0.1l-0.1,0c-0.3,0.3-0.6,0.5-0.8,0.5l-0.2,0l0-0.2c0.1,0,0.2,0,0.3-0.1c0,0.1,0,0.1,0.1,0.1c0-0.3,0.1-0.5,0.3-0.5l0.2,0.1
		c0-0.2,0.2-0.3,0.6-0.5c1.6-1,3.8-2.3,6.7-3.7c0-0.1,0.4-0.3,1.1-0.6c1.5-0.9,2.4-1.4,2.7-1.4c0-0.1,0.1-0.2,0.3-0.3l0.2,0.1
		c0-0.2,0.7-0.6,2-1.2c0,0.1,0,0.1,0.1,0.1c0-0.2,1-0.8,3-1.8c0.4-0.3,1.2-0.7,2.4-1.2c1.2-0.8,2.2-1.3,3-1.6
		c0.2-0.2,2.6-1.4,7.1-3.8c2.9-1.6,4.4-2.4,4.7-2.4c0,0.1,0,0.1,0.1,0.1c0-0.3,0.5-0.6,1.6-1.1c5.2-2.9,8.1-4.7,8.7-5.2
		c1.3-0.7,2.5-1.7,3.6-2.8c0.7-0.7,1.1-1.2,1.3-1.6c0-0.4-1.4-0.7-4-0.9L64.7,26c-0.1-0.1-0.2-0.1-0.4-0.1L64,26
		C63.8,26,63.7,26,63.6,26l-0.2,0.1C63.3,26,63.2,26,63,26c-0.1,0-0.3,0-0.4,0.1C62.5,26,62.4,26,62.4,26L62,26.1L61.8,26
		c-0.1,0.1-0.2,0.1-0.3,0.1l0-0.1l-0.6,0.2l-0.2-0.1l-0.5,0.1l0-0.1c-0.3,0.1-0.6,0.2-0.9,0.2l-0.2-0.1c-0.2,0.1-0.3,0.2-0.5,0.2
		l0-0.1c-2.7,0.5-5.1,0.9-7.2,1.4c0-0.1,0-0.1-0.1-0.1c0,0.1-1.7,0.6-5.1,1.4c-1,0.4-1.7,0.7-2.1,1.1c0.1,0,0.2,0.1,0.2,0.2
		l-0.1,0.5l-0.1,0l0-0.2L44,30.9c-0.1-0.1-0.2-0.1-0.3-0.1l0,0.2c0.2,0,0.3,0.2,0.3,0.6l-0.2,0.1c0-0.1,0-0.1-0.1-0.1
		c0,0.1,0,0.1-0.1,0.1c0-0.1,0-0.1-0.1-0.1l0,0.1l0.2,0.3c-0.1,0-0.2,0.2-0.4,0.5c0,0-0.1,0.2-0.3,0.7c-0.1-0.1-0.2-0.1-0.3-0.1
		l0.1-0.2l0-0.3l0.2,0L43,32.4l0.1-0.2l0-0.1l-0.1,0c0,0.1-0.1,0.3-0.3,0.6l0,0.1l0.1,0.2c-0.2,0-0.4,0.1-0.4,0.2l0,0.1l0.2-0.1
		l0.1,0c0,0.1,0,0.1-0.1,0.1l0.2,0.4c-0.2,0-0.3,0.1-0.3,0.2l-0.4-0.2l0,0.1c0,0.1,0.1,0.2,0.2,0.2c0-0.1,0-0.1,0.1-0.1
		c0,0.1,0,0.1,0.1,0.1c0-0.1,0-0.1,0.1-0.1l0,0.2c-0.1,0-0.2,0.2-0.5,0.7l0-0.1l0.1-0.2c-0.2,0-0.4,0.3-0.5,0.7l0,0.1l0.1,0
		c0-0.2,0.1-0.4,0.3-0.4l0.1,0c-0.3,0.8-0.9,1.8-1.8,3l0-0.2l-0.2,0c0,0.1,0,0.2-0.1,0.3l0.2,0l0,0.2c-0.3,0.6-0.5,0.8-0.6,0.9
		l-0.1,0c0.2-0.4,0.3-0.6,0.3-0.8c-0.2,0.1-0.5,0.5-0.7,1.1c0.1,0,0.2,0,0.2,0.1c-0.6,0.9-0.9,1.4-1,1.4l-0.2,0l0.2-0.3l-0.2,0
		c0,0.2-0.5,0.9-1.6,1.9l-0.1,0l0-0.3l-0.1,0L36,42.5c-0.1,0-0.2-0.1-0.3-0.3l2.8-3.9c2.1-3.6,3.2-5.4,3.2-5.6c0.6-0.9,1-1.5,1-1.8
		l-0.1,0l-0.3,0.2L42.1,31c0,0.1-0.4,0.3-1.1,0.8l-0.1,0l0-0.2l-0.1,0c-0.2,0.3-0.3,0.5-0.4,0.5L40,32l-1.6,1
		c-0.1-0.1-0.2-0.1-0.3-0.1c-0.3,0.2-0.5,0.4-0.4,0.5l-0.1,0c-0.1,0-0.1,0-0.1-0.1c-1.9,1-2.9,1.5-3.3,1.5c0-0.1,0-0.1-0.1-0.1
		c0,0.1-0.1,0.2-0.3,0.3c0-0.1,0-0.1-0.1-0.1c0,0.3-1.4,0.9-4.1,1.7c-0.4,0-0.6,0.1-0.6,0.1c-0.4-0.4-0.7-0.7-0.9-0.9l0-0.1
		c0.1-1,2.8-2.6,8.2-4.8c2.7-1,5.3-1.9,7.9-2.7c1.9-3.8,3.3-6.7,4.1-8.5l0.2,0c0.2,0,0.3,0.1,0.3,0.4c-0.1,0.1-0.1,0.2-0.1,0.3
		l0.1,0l0.2-0.1l0.1,0.2l0,0.5l-0.1,0c-0.1-0.1-0.2-0.1-0.3-0.1c0,0.1,0,0.1-0.1,0.1c0-0.1,0-0.1-0.1-0.1c-0.3,1-0.9,2.3-1.6,3.9
		c0.1,0.1,0.1,0.2,0.1,0.3l-0.2-0.1l-0.1,0.2l0.1,0.2c-0.2,0-0.4,0.2-0.5,0.7c0,0.1,0.1,0.2,0.4,0.4c0-0.1,0-0.1,0.1-0.1l0,0.2
		c-0.2,0.4-0.3,0.7-0.3,0.8l-0.3,0c0.1-0.1,0.1-0.2,0.1-0.3l0-0.3c0.1,0,0.2-0.1,0.3-0.3l-0.1,0c0,0.1-0.1,0.2-0.2,0.2l0-0.1
		c0.1-0.1,0.1-0.2,0.1-0.3c-0.1,0-0.2,0.3-0.5,0.8l0.1,0.2l0,0.2l-0.2-0.1l-0.3,0.7l0.2,0c0.3,0,2.1-0.9,5.3-2.7
		c0,0.1,0,0.1,0.1,0.1c0-0.2,1.1-0.9,3.4-2.2c2.1-1.3,4.7-3,7.7-5.1c2.9-2.4,4.3-4,4.3-4.8c0-0.3-0.8-0.5-2.2-0.6l-0.4,0.1l-0.2-0.1
		l-1.3,0.2l0-0.1c-1.1,0-3.9,0.8-8.5,2.1c-2.6,1.1-4,1.6-4.1,1.6L49,16.9c0-0.1,0-0.1-0.1-0.1l0,0.2l-0.1,0c-0.1,0-0.1,0-0.1-0.1
		c-0.8,0.4-1.2,0.6-1.2,0.7l-0.2-0.1l-0.1,0c-2.3,1.2-3.7,2-4.3,2.4c-3.6,2-7.3,4.5-11.1,7.5c-0.2,0.3-0.5,0.4-0.8,0.6
		c0,0.1-1,1.1-3,3c-1.1,1.3-1.7,2.4-1.8,3.1c0.1,0,0.1,0,0.1,0.1c-0.2,0-0.3,0.2-0.3,0.5l-0.1,0c-0.5,0-0.8-0.3-0.9-0.9
		c-0.1-2.1,2.9-5.4,9-9.9l2.8-1.9c0.9-0.8,1.9-1.5,3.2-2.1c1.7-1.2,4.9-2.9,9.5-4.9C55.6,12.8,60,11.5,63.1,11.4z M40.8,36.6
		l-0.3,0.6C40.6,37.2,40.7,37,40.8,36.6L40.8,36.6C40.9,36.6,40.8,36.6,40.8,36.6z M41.1,36c0,0.1,0,0.3-0.1,0.4l0.1,0l0.2-0.3
		l0-0.1L41.1,36z M41.4,35.7l0.2,0l0.1-0.5C41.5,35.2,41.4,35.4,41.4,35.7z M42.9,33.1l0.2,0l0,0.3l-0.2,0
		C42.9,33.4,42.9,33.1,42.9,33.1z M43.3,31.6c0,0.1,0,0.2-0.1,0.3l0.1,0c0.1,0,0.2-0.1,0.2-0.2l0-0.1L43.3,31.6z M43.6,31.1
		c0,0.1,0,0.2-0.1,0.3c0.1,0,0.2,0.1,0.2,0.2l0.1,0l0-0.1C43.8,31.3,43.7,31.2,43.6,31.1C43.7,31.1,43.6,31.1,43.6,31.1z M43.9,30.5
		L43.9,30.5c0.1,0.1,0.2,0,0.2-0.1l0-0.1C43.9,30.3,43.9,30.4,43.9,30.5z M47.2,24L47.2,24c0.2,0.1,0.3,0.1,0.4,0.1l0,0.2
		c0,0.1-0.1,0.2-0.3,0.3l-0.1,0l0-0.1c0-0.1,0-0.1,0.1-0.1l-0.1-0.2L47.2,24z M47.6,22c0,0.1,0,0.2-0.1,0.3l0.1,0
		c0.1,0,0.2-0.1,0.2-0.2L47.6,22z M47.8,21.6c0,0.1,0,0.2-0.1,0.3l0.2,0L47.8,21.6L47.8,21.6z M62.4,36.3c0.2,0,0.5,0.3,1,0.8
		c0,0.6-1,2.6-3,5.9c-0.2,0-0.6,0.3-1,0.8c-0.4,0-0.7-0.1-0.7-0.3l0-0.2l2.5-4.3c0.6-1.3,0.9-2,0.9-2.2C62,36.5,62.1,36.3,62.4,36.3
		z M64.8,27l0.5,0c0.5,0.3,0.8,0.5,0.8,0.5c0,0.5-0.4,1.2-1.3,1.9l-0.4,0.1c-0.2,0-0.5-0.2-0.9-0.6l0-0.2c0.3-1,0.7-1.5,1.1-1.5
		C64.7,27.1,64.7,27,64.8,27z M69.4,36.5L69.4,36.5l0.2,0c0.1,0,0.1,0,0.1,0.1c0.1,0,0.1,0,0.1-0.1c1.2,0.2,1.9,0.7,1.9,1.3l0,0.1
		c0,0.9-0.6,1.7-2,2.3c-0.1,0-0.2,0-0.3,0.1c-0.8-0.2-1.2-0.4-1.2-0.7l0-0.3c0-0.1,0.4-0.2,1.2-0.4c0.5-0.6,0.8-1,0.8-1.4l-0.4,0
		c-0.8,0-2,0.6-3.6,1.8l0,0.4c0.3,0.3,1.2,0.9,2.7,1.8c0.6,0.8,0.9,1.2,0.9,1.5l0,0.6c0,0.7-0.8,1.5-2.6,2.4c-1.3,0.6-4,1.3-8.2,2
		c0,0.1-0.3,0.2-0.8,0.3l0-0.1L55.3,49l-0.5,0.1l-0.1-0.2c0-0.6,0.7-1.1,2.2-1.4c0.3-0.2,1.1-0.4,2.5-0.6c0,0.1,0,0.1,0.1,0.1
		c0-0.1,0.9-0.3,2.7-0.6c4.2-1,6.2-2.2,6.2-3.5l0-0.2c-0.2-0.5-0.8-1-1.9-1.6c-0.9-0.6-1.5-1.2-1.7-1.7c0-0.7,1.3-1.6,3.9-2.8
		C68.8,36.6,69.1,36.5,69.4,36.5z M78.9,36.3c0.5,0.2,0.8,0.4,0.9,0.6l0,0.6l-0.2,0.3l-0.7-0.1c-1.3,0-2.7,0.9-4.2,2.5
		c-0.2,0.3-0.3,0.7-0.3,1c0.1,0,0.3,0.2,0.6,0.6l0.2-0.1c0.1,0,0.4,0.1,0.7,0.2l0.2-0.1c0.1,0,0.1,0,0.1,0.1l4.6-1
		c0,0.1,0,0.1,0.1,0.1c0,1-1.2,1.7-3.7,2.2l0-0.1l-0.2,0.1l-0.6,0c-0.1,0-0.1,0-0.1-0.1l-0.2,0.1c-1.5,0.1-2.6-0.7-3.1-2.3l0-0.9
		c0.2-0.7,0.9-1.4,1.9-2.2C76,36.8,77.4,36.3,78.9,36.3z M88.5,36c0.1,0,0.2,0,0.3,0.1l0.4-0.1c0.6,0,1,0.2,1.3,0.6l0,0.2
		c0,0.2-0.7,0.4-2,0.6c-1.7,0.8-3,1.6-3.8,2.5c-0.5,0.7-0.7,1.2-0.7,1.4l0.1,0c0.8,0,2.3-0.8,4.6-2.5c1-0.7,1.8-1.2,2.4-1.4
		c0.8,0.2,1.2,0.6,1.2,1.2l0,0.2c-1.1,1.7-1.6,2.9-1.7,3.7l-0.1,0c-0.4,0-0.8-0.3-1.1-1c0-0.1,0-0.2-0.1-0.3c0-0.4,0.1-0.7,0.3-0.9
		l-0.1,0c-2.4,1.7-4,2.5-4.8,2.6c-0.7,0-1.3-0.3-1.8-1.1c-0.2-0.3-0.3-0.7-0.3-1.2c0-0.8,0.9-1.9,2.9-3.3C85.8,37,86.8,36.5,88.5,36
		L88.5,36z M97.4,33.6c0.6,0,0.8,0.3,0.9,0.8c-1.4,1.6-2.4,3.5-3,5.7c0,0.1,0,0.1,0.1,0.1l-0.1,0.5l0,0.4l0.1,0.5
		c1.3-0.6,2.6-1.6,3.9-3c0.5-0.4,1.6-1.7,3.3-3.8c0.8,0,1.3,0.2,1.4,0.7l0,0.1c0,0.2-0.5,1.2-1.6,3.1c-1.5,3.9-3.7,7.8-6.6,11.6
		c-2.9,3.4-5.1,5.8-6.8,7.1c-3.4,2.9-6.4,4.5-9.2,5l0-0.1l-0.2,0.1l-0.6,0c-2-0.1-3-0.4-3-1c-0.1-0.2-0.2-0.3-0.2-0.5
		c-0.1-1.9,1.4-4.4,4.4-7.7l2.2-1.7l1.6-0.9c0,0.1,0.1,0.2,0.4,0.2c0,0.2-0.1,0.3-0.3,0.3l0.1,0.2c0,0.1-0.2,0.3-0.6,0.6
		c0,0.2-0.7,0.9-2.1,2c-2.1,2.3-3.3,3.8-3.5,4.7c-0.4,0-0.7,0.9-0.8,2.7c0.4,0.2,0.6,0.4,0.7,0.3c0.1-0.1,0.2-0.1,0.3-0.1
		c0.3,0,0.5,0,0.5,0.2c2.3-0.3,4.8-1.5,7.4-3.5c1.8-1.4,3.2-2.7,4.2-3.7c3.7-3.9,6.4-7.5,8-10.6c0.7-1,1.3-2.4,2-4.1
		c-1.9,1.9-3.4,2.9-4.5,2.9l-0.2,0c-1.1-0.2-1.7-0.8-1.7-1.6l0-0.3c-0.1-1.9,0.9-4.1,2.8-6.7C97,33.9,97.2,33.8,97.4,33.6L97.4,33.6
		z M146.8,1.2c0.9,0,1.4,0,1.4,0.1l0.2-0.1l0.1,0c1.6,0.4,2.3,0.8,2.3,0.9c0.8,0.5,1.2,1.3,1.3,2.4c-0.2,1.9-1.2,3.8-2.9,5.8
		c-0.3,0.7-2.5,3.2-6.8,7.5c-0.9,0.7-1.9,1.5-2.9,2.4l-5,4.2l-9.1,6.9c-2.6,4.3-5.2,8.2-7.7,11.8c-0.3,0.3-0.6,0.4-0.9,0.4
		c-0.2-0.4-0.3-0.7-0.3-0.8c1.1-1.7,1.8-2.5,2-2.7c0-0.3,1-2,3.2-5.2c0.4-0.7,0.6-1.1,0.6-1.2c-1.7,1.2-2.5,1.8-2.5,1.8l-0.3,0
		l0.1-0.2l-0.1,0l-0.3,0.2l-0.1,0l0-0.1c0.1-0.2,0.2-0.4,0.5-0.4l-0.1-0.2c0.1,0,0.3-0.3,0.7-0.9c2.1-1.5,3.5-2.7,4.2-3.4
		c0.5-1,1.2-2.1,2-3.5c1.9-3.5,2.9-5.3,3.1-5.4l0.1,0l-0.1-0.2c1.1-1.9,2.2-3.9,3.2-6c0.9-1.6,1.7-3.3,2.4-5.1
		c1-2.6,1.7-3.9,2.3-3.9l0.3-0.2c0.1,0.1,0.2,0.3,0.2,0.4l0.5-0.1l0,0.1c-0.7,1.3-1.5,3.1-2.4,5.5c-1.8,3.6-3,5.8-3.5,6.7l-0.1,0
		l0.1,0.2l-5.4,9.7l0.1,0c0.3-0.4,0.8-0.7,1.5-1.2c0.2-0.3,0.7-0.6,1.4-1c0-0.1,0.6-0.6,1.8-1.5L132,25c0-0.2,0.7-0.8,2.1-1.8
		c1.2-1.1,2-1.6,2.3-1.7l-0.1-0.2c1.4-1.3,2.3-2.1,2.8-2.3c5.7-5.1,9.1-8.9,10.3-11.3c1-1.5,1.5-2.8,1.5-3.8c-0.1-1-0.7-1.6-1.6-1.5
		c0-0.1-0.7-0.2-2-0.2c-0.1,0.1-0.2,0.1-0.3,0.1l0-0.1l-0.2,0.1l-0.3,0c-0.1,0-0.1,0-0.1-0.1l-0.2,0.1c-0.1,0-0.1,0-0.1-0.1
		c-4.1,0.7-7.4,1.8-10.1,3.4c-1,0.3-3,1.6-5.9,4c-2,1.8-3.5,3.5-4.5,5.1c-2,2.9-3.7,6.9-5,11.8c0,0.2-0.2,1.1-0.7,2.7l-0.2,0l0-0.7
		c-0.2,0-0.4-0.2-0.5-0.7l-0.1,0l0-0.1c0-0.1,0.1-0.2,0.2-0.2c0,0.1,0,0.1,0.1,0.1c-0.1-0.3-0.1-0.6-0.1-0.7
		c0.3-1.1,0.5-1.7,0.6-1.7c0,0.1,0,0.1,0.1,0.1l-0.1-0.5c1-3.7,2.2-6.9,3.6-9.4c2.2-3.6,5-6.5,8.3-8.7c1.6-1.3,4.1-2.6,7.4-4
		l2.4-0.7l0.6,0C143,1.5,144.6,1.2,146.8,1.2z M140.3,10.4l0,0.2l-0.1,0.2l0.1,0.2c-0.1,0.4-0.4,0.9-0.8,1.6l0.1,0.2l0,0.1
		c-0.3,0.3-0.5,0.5-0.6,0.7c0.1,0.1,0.1,0.2,0.1,0.3c-0.1,0-1,1.6-2.4,4.7c-1.7,2.9-3.7,7.2-6,12.8c-0.1,0-0.6,1-1.3,2.9
		c-0.1,0-0.4,0.5-0.9,1.6c-1.7,3.3-2.8,5.2-3.5,5.9c0,0.2-0.4,0.2-1,0.1c-0.4,0-0.7-0.2-0.8-0.6l0-0.1c1-0.8,2.1-2.3,3.2-4.6
		c0.2-0.3,1.1-1.9,2.5-4.7c-0.1,0-0.1-0.1-0.1-0.1c0.1-0.1,1.2-2.3,3.2-6.8c2.1-4.4,4.3-8.5,6.7-12.3c-0.1,0-0.1-0.1-0.1-0.1
		c0.6-0.7,1.1-1.4,1.3-2.1l0.2,0l0,0.3l0.1,0C140.1,10.5,140.2,10.4,140.3,10.4L140.3,10.4z M135.3,34.5c0.1,0,0.2,0,0.3,0.1
		l0.4-0.1c0.6,0,1,0.2,1.3,0.6l0,0.2c0,0.2-0.7,0.4-2,0.6c-1.7,0.8-3,1.6-3.8,2.5c-0.5,0.7-0.7,1.2-0.7,1.4l0.1,0
		c0.8,0,2.3-0.8,4.6-2.5c1-0.7,1.8-1.2,2.4-1.4c0.8,0.2,1.2,0.6,1.2,1.2l0,0.2c-1.1,1.7-1.6,2.9-1.7,3.7l-0.1,0
		c-0.4,0-0.8-0.3-1.1-1c0-0.1,0-0.2-0.1-0.3c0-0.4,0.1-0.7,0.3-0.9l-0.1,0c-2.4,1.7-4,2.5-4.8,2.6c-0.7,0-1.3-0.3-1.8-1.1
		c-0.2-0.3-0.3-0.7-0.3-1.2c0-0.8,0.9-1.9,2.9-3.3C132.6,35.4,133.7,35,135.3,34.5L135.3,34.5z M144.3,33.6c0.2,0,0.5,0.3,1,0.8
		c0,0.6-1,2.6-3,5.9c-0.2,0-0.6,0.3-1,0.8c-0.4,0-0.7-0.1-0.7-0.3l0-0.2l2.5-4.3c0.6-1.3,0.9-2,0.9-2.2
		C143.9,33.8,144,33.6,144.3,33.6z M146.7,24.3l0.5,0c0.5,0.3,0.8,0.5,0.8,0.5c0,0.5-0.4,1.2-1.3,1.9l-0.4,0.1
		c-0.2,0-0.5-0.2-0.9-0.6l0-0.2c0.3-1,0.7-1.5,1.1-1.5C146.6,24.4,146.6,24.3,146.7,24.3L146.7,24.3z M149.8,32.9
		c0.7,0.1,1,0.2,1,0.4c-0.2,0.9-0.6,2.2-1.4,3.9l0.1,0c1.2-1,2.3-1.6,3.4-1.6c0-0.1,0-0.1,0.1-0.1l0.2,0.1l0.4-0.1
		c1,0,1.7,0.5,1.9,1.7l0,0.1c-0.3,2.2-0.7,3.3-1.3,3.3l-0.1,0c-0.4-0.3-0.6-0.6-0.6-0.6l0-0.5c0.3-1.2,0.4-2,0.4-2.5l0-0.1
		c0-0.1-0.1-0.2-0.2-0.2c-1.4,0-3.1,1.2-5.3,3.6c-0.2,0-0.4,0.1-0.8,0.2c-0.6-0.4-0.9-0.6-1-0.7l0-0.2c0-0.2,0.6-1.3,1.7-3.5
		C149.1,34,149.5,32.9,149.8,32.9L149.8,32.9z"/>
</g>
</svg>
